General
Complete name                    : Skyfall[2012]BRrip[Ac3-5.1]-=[CaLvIn]=-
Imdb Link                        : http://www.imdb.com/title/tt1074638
Format                           : AVI
Format/Info                      : Audio Video Interleave
File size                        : 1 000 MiB
Duration                         : 2h 17mn
Overall bit rate                 : 1 014 Kbps
Writing application              : VirtualDubMod 1.5.10.3 | www.virtualdub-fr.org || (build 2550/release)
Writing library                  : VirtualDubMod build 2550/release

Video
ID                               : 0
Format                           : MPEG-4 Visual
Format profile                   : Advanced Simple@L5
Format settings, BVOP            : 2
Format settings, QPel            : No
Format settings, GMC             : No warppoints
Format settings, Matrix          : Default (H.263)
Codec ID                         : XVID
Codec ID/Hint                    : XviD
Duration                         : 2h 17mn
Bit rate                         : 748 Kbps
Width                            : 720 pixels
Height                           : 400 pixels
Display aspect ratio             : 16:9
Frame rate                       : 23.976 fps
Color space                      : YUV
Chroma subsampling               : 4:2:0
Bit depth                        : 8 bits
Scan type                        : Progressive
Compression mode                 : Lossy
Bits/(Pixel*Frame)               : 0.108
Stream size                      : 738 MiB (74%)
Writing library                  : XviD 1.2.1 (UTC 2008-12-04)

Audio
ID                               : 1
Format                           : AC-3
Format/Info                      : Audio Coding 3
Mode extension                   : CM (complete main)
Codec ID                         : 2000
Duration                         : 2h 17mn
Bit rate mode                    : Constant
Bit rate                         : 256 Kbps
Channel(s)                       : 6 channels
Channel positions                : Front: L C R, Side: L R, LFE
Sampling rate                    : 48.0 KHz
Bit depth                        : 16 bits
Compression mode                 : Lossy
Stream size                      : 253 MiB (25%)
Alignment                        : Split accross interleaves
Interleave, duration             : 42 ms (1.00 video frame)
Interleave, preload duration     : 500 ms

Screens
 
http://img10.imageshack.us/img10/6960/68928830.png 
http://img826.imageshack.us/img826/2760/96386812.png 
http://img94.imageshack.us/img94/5259/36917489.png 
http://img62.imageshack.us/img62/976/90941186.png 
http://img713.imageshack.us/img713/1895/58884733.png 
http://img12.imageshack.us/img12/6201/99202015.png 
http://img32.imageshack.us/img32/8554/70455417.png 
http://img407.imageshack.us/img407/6326/90270487.png 
http://img690.imageshack.us/img690/9910/32341253.png 
http://img28.imageshack.us/img28/1157/53969269.png